<?xml version="1.0" standalone="no"?>
<!DOCTYPE svg PUBLIC "-//W3C//DTD SVG 20010904//EN"
 "http://www.w3.org/TR/2001/REC-SVG-20010904/DTD/svg10.dtd">
<svg version="1.0" xmlns="http://www.w3.org/2000/svg"
 width="512.000000pt" height="512.000000pt" viewBox="0 0 512.000000 512.000000"
 preserveAspectRatio="xMidYMid meet">
<metadata>
Created by potrace 1.11, written by Peter Selinger 2001-2013
</metadata>
<g transform="translate(0.000000,512.000000) scale(0.100000,-0.100000)"
fill="#000000" stroke="none">
<path d="M1349 5033 c-16 -7 -32 -12 -35 -12 -6 1 -104 -98 -104 -104 0 -3
-20 -34 -45 -71 -46 -69 -135 -245 -135 -268 0 -7 -7 -26 -15 -42 -9 -16 -13
-36 -11 -43 3 -7 0 -13 -6 -13 -6 0 -8 -3 -5 -7 4 -3 3 -11 -2 -17 -8 -10 -33
-120 -45 -196 -24 -154 -27 -305 -9 -415 14 -79 20 -108 23 -112 3 -3 3 -5 15
-48 4 -16 14 -40 21 -52 8 -13 12 -23 9 -23 -6 0 59 -122 87 -162 10 -14 18
-31 18 -37 0 -6 5 -11 10 -11 6 0 10 -7 10 -15 0 -8 5 -15 10 -15 6 0 10 -6
10 -14 0 -8 3 -16 8 -18 4 -1 32 -37 63 -79 31 -41 64 -82 72 -91 9 -9 14 -18
12 -20 -3 -3 13 -23 35 -46 21 -23 36 -42 33 -42 -4 0 3 -10 14 -22 30 -34
113 -161 113 -174 0 -7 7 -14 15 -18 8 -3 15 -11 15 -18 0 -7 11 -35 24 -63
30 -63 55 -134 61 -171 2 -16 7 -45 11 -64 16 -89 5 -278 -21 -360 -3 -10 -7
-27 -9 -37 -2 -11 -11 -36 -20 -56 -8 -21 -15 -40 -15 -42 -1 -9 -52 -98 -90
-155 -54 -82 -159 -183 -263 -253 -50 -34 -96 -71 -102 -82 -6 -11 -15 -23
-21 -27 -5 -4 -6 -8 -2 -8 4 0 3 -9 -3 -19 -11 -22 -20 -107 -12 -116 3 -3 7
-13 8 -23 2 -9 8 -18 13 -20 6 -2 11 -10 11 -17 0 -20 66 -78 103 -92 76 -28
158 -10 252 56 109 76 148 109 232 196 105 108 243 307 235 338 -1 4 3 7 8 7
6 0 9 3 8 8 -1 4 9 30 21 57 13 28 24 55 25 60 2 6 10 35 20 66 9 31 19 66 21
78 3 11 7 30 9 40 3 11 8 41 12 68 3 26 8 57 11 68 6 32 5 225 -2 280 -7 58
-33 193 -42 215 -3 8 -7 20 -8 25 -2 17 -31 88 -52 128 -8 15 -12 27 -9 27 3
0 -11 28 -30 63 -19 34 -38 70 -41 80 -3 9 -9 17 -14 17 -5 0 -9 7 -9 15 0 8
-5 15 -11 15 -5 0 -7 5 -4 10 3 6 1 10 -5 10 -6 0 -8 5 -5 10 3 6 1 10 -5 10
-6 0 -15 11 -20 25 -5 14 -14 25 -20 25 -5 0 -10 5 -10 10 0 12 -53 86 -155
215 -90 114 -177 246 -210 317 -44 97 -54 152 -50 283 3 121 5 139 27 230 7
28 12 52 13 55 0 3 4 11 9 18 4 7 6 16 3 18 -3 3 1 17 8 31 8 15 12 30 9 35
-3 4 0 8 6 8 6 0 8 5 5 10 -3 6 -1 10 6 10 7 0 10 3 6 6 -6 7 53 127 66 132 4
2 7 8 7 13 0 8 19 34 46 63 27 29 64 106 68 142 5 56 -19 122 -62 166 -31 33
-92 67 -92 51 0 -3 -6 0 -14 6 -17 14 -76 11 -117 -6z"/>
<path d="M2368 5039 c-10 -5 -18 -7 -18 -4 0 9 -53 -21 -75 -43 -73 -70 -215
-292 -215 -336 0 -8 -4 -16 -8 -18 -9 -3 -85 -230 -88 -260 -1 -10 -2 -19 -4
-20 -8 -11 -32 -182 -34 -245 0 -18 -4 -33 -9 -33 -4 0 -5 -6 -1 -12 11 -18
12 -48 2 -54 -4 -3 -3 -14 2 -25 8 -14 7 -19 -1 -19 -7 0 -8 -4 -2 -12 5 -7 9
-34 9 -60 -1 -27 1 -48 4 -48 3 0 6 -8 6 -17 1 -18 12 -78 18 -98 3 -11 12
-33 29 -80 7 -16 12 -32 12 -35 2 -29 166 -300 187 -308 4 -2 8 -8 8 -13 0
-10 101 -142 112 -147 5 -2 8 -10 8 -17 0 -7 7 -16 16 -19 9 -4 14 -9 11 -12
-3 -3 2 -14 11 -23 33 -35 55 -65 107 -146 134 -208 177 -347 171 -555 -4
-131 -9 -159 -38 -250 -36 -114 -118 -270 -141 -270 -6 0 -8 -3 -4 -6 5 -6
-15 -32 -73 -93 -39 -42 -153 -131 -167 -131 -7 0 -13 -4 -13 -9 0 -5 -12 -14
-27 -20 -35 -15 -78 -74 -92 -129 -16 -58 -5 -117 30 -168 40 -59 87 -85 162
-91 55 -4 68 -2 121 26 66 35 186 121 186 133 0 4 5 8 10 8 13 0 170 157 170
170 0 5 6 13 13 17 7 4 24 24 37 43 13 19 27 37 30 40 13 12 93 160 114 210
10 25 22 54 27 65 14 33 48 148 54 180 2 17 7 41 10 55 14 67 19 147 18 275
-2 203 -40 357 -135 550 -22 44 -47 88 -55 98 -9 9 -13 17 -10 17 7 0 -72 119
-101 153 -8 9 -12 17 -8 17 4 0 -7 15 -23 33 -17 17 -31 35 -31 40 0 4 -9 17
-20 30 -40 43 -48 52 -109 136 -66 89 -163 244 -163 258 0 4 -4 14 -10 21 -6
6 -7 12 -3 12 4 0 3 6 -3 13 -10 12 -16 31 -28 100 -7 40 -11 177 -4 177 3 0
5 15 6 33 1 32 11 122 14 122 2 0 7 19 14 56 25 118 92 261 176 374 60 81 75
124 67 190 -9 73 -72 150 -137 169 -45 14 -105 16 -122 5z"/>
<path d="M3345 5032 c-52 -18 -125 -75 -125 -99 0 -7 -4 -13 -9 -13 -11 0
-101 -138 -101 -156 0 -8 -4 -14 -8 -14 -9 0 -56 -104 -96 -211 -30 -80 -72
-278 -81 -379 -21 -235 -3 -372 73 -550 36 -86 89 -182 104 -188 4 -2 8 -8 8
-13 0 -9 119 -179 143 -204 7 -7 19 -23 27 -35 8 -13 26 -37 40 -54 45 -54
125 -169 163 -231 55 -93 125 -255 110 -255 -3 0 0 -7 7 -15 7 -8 10 -22 6
-30 -3 -8 -2 -15 2 -15 10 0 11 -17 14 -150 1 -93 -3 -146 -16 -215 -3 -11 -5
-21 -6 -22 -3 -3 -3 -5 -14 -53 -4 -19 -14 -45 -22 -57 -8 -13 -12 -23 -10
-23 9 0 -46 -104 -88 -165 -67 -99 -193 -218 -296 -277 -45 -26 -93 -80 -93
-105 0 -7 -4 -13 -8 -13 -12 0 -16 -73 -6 -115 34 -139 183 -204 312 -137 70
37 140 86 205 142 68 60 120 109 120 114 0 2 15 20 33 40 42 46 46 51 94 121
51 76 123 212 115 219 -3 3 1 6 8 6 7 0 11 3 7 6 -3 3 3 26 13 50 11 24 17 44
13 44 -3 0 0 7 7 15 6 8 9 19 5 25 -3 5 -2 10 3 10 5 0 9 6 9 13 1 18 13 79
18 86 4 7 11 55 21 136 9 76 4 315 -6 315 -3 0 -5 15 -6 33 -1 34 -7 61 -23
115 -5 17 -7 32 -4 32 3 0 0 7 -7 15 -6 8 -9 19 -5 25 3 5 1 10 -4 10 -6 0
-10 3 -10 8 1 4 0 10 -1 15 -1 4 -3 10 -4 15 -19 69 -124 261 -211 384 -22 31
-47 66 -55 78 -8 13 -33 46 -56 74 -199 251 -279 384 -301 504 -14 72 -8 225
11 347 17 106 70 249 128 344 21 34 38 65 38 67 0 2 10 14 23 27 31 33 51 61
56 78 23 87 22 113 -3 173 -17 40 -73 95 -106 103 -14 3 -29 9 -35 13 -17 13
-68 9 -120 -8z"/>
<path d="M584 2018 c-57 -44 -79 -64 -164 -148 -82 -81 -180 -211 -180 -237 0
-7 -4 -13 -9 -13 -5 0 -12 -10 -16 -22 -4 -13 -8 -25 -9 -28 -1 -3 -7 -15 -14
-27 -7 -13 -10 -23 -6 -23 3 0 2 -6 -3 -12 -10 -13 -21 -49 -30 -98 -7 -36 -9
-230 -3 -230 3 0 6 -10 6 -22 2 -23 7 -50 20 -91 11 -39 58 -142 67 -148 4 -3
9 -12 10 -20 4 -24 112 -161 172 -219 32 -30 71 -68 86 -83 16 -15 29 -25 29
-22 0 3 11 -6 25 -20 14 -14 30 -25 35 -25 5 0 15 -6 22 -12 14 -14 68 -51
138 -94 73 -45 309 -158 350 -168 3 -1 15 -7 26 -14 12 -6 24 -8 28 -5 3 3 6
1 6 -5 0 -7 3 -11 8 -10 12 2 66 -14 80 -25 6 -5 12 -6 12 -2 0 4 7 2 15 -5 8
-7 15 -10 15 -6 0 3 16 0 35 -8 19 -8 35 -12 35 -8 0 3 5 1 12 -6 7 -7 21 -12
33 -12 11 0 39 -7 62 -15 22 -8 52 -16 65 -19 12 -2 41 -9 63 -14 40 -11 65
-16 185 -36 19 -4 46 -9 60 -11 14 -3 41 -7 60 -9 19 -2 53 -6 75 -10 130 -20
305 -30 560 -30 260 -1 427 7 572 28 21 3 58 8 83 11 58 7 132 20 180 30 24 6
64 13 105 20 11 2 20 4 20 5 0 1 7 3 15 5 15 3 130 32 160 39 8 3 15 5 15 6 0
1 7 3 15 5 34 7 104 27 129 37 14 6 35 13 45 15 11 2 25 8 33 14 7 6 13 8 13
4 0 -4 6 -2 13 4 8 6 22 12 33 14 10 2 42 13 69 26 28 12 66 29 85 38 54 24
141 68 180 92 19 11 42 24 50 28 19 8 187 121 220 148 53 43 210 202 210 213
0 7 9 17 20 24 11 7 20 17 20 21 0 5 14 28 30 53 17 24 27 44 23 44 -4 0 -3 4
3 8 11 8 53 101 60 136 3 11 8 32 11 46 3 14 6 32 7 40 1 9 4 20 8 25 6 11 2
175 -5 221 -3 17 -14 56 -25 87 -11 30 -17 58 -14 61 3 3 0 6 -6 6 -7 0 -11 3
-10 8 4 11 -78 152 -117 201 -31 39 -177 183 -213 211 -19 14 -42 33 -53 42
-22 21 -26 3 -4 -21 47 -52 54 -61 49 -61 -3 0 3 -12 14 -27 41 -60 79 -157
97 -248 6 -33 7 -183 1 -194 -2 -3 -7 -23 -10 -45 -7 -41 -54 -168 -66 -176
-4 -3 -10 -15 -14 -27 -4 -13 -12 -23 -17 -23 -5 0 -9 -7 -9 -15 0 -9 -7 -18
-15 -21 -8 -4 -13 -10 -10 -14 6 -10 -144 -164 -210 -216 -27 -21 -52 -41 -55
-44 -10 -11 -136 -89 -180 -112 -25 -13 -52 -28 -60 -33 -8 -5 -17 -10 -20
-10 -3 -1 -40 -18 -83 -38 -42 -20 -84 -37 -92 -37 -8 0 -15 -5 -15 -10 0 -6
-6 -10 -12 -9 -7 2 -31 -5 -53 -15 -22 -10 -51 -20 -65 -22 -13 -3 -30 -10
-37 -16 -7 -6 -13 -8 -13 -4 0 3 -16 0 -35 -8 -20 -9 -39 -15 -43 -16 -4 0
-25 -5 -47 -11 -22 -6 -47 -13 -55 -15 -34 -9 -258 -54 -295 -59 -75 -10 -125
-17 -232 -30 -189 -22 -572 -23 -763 0 -19 2 -60 7 -90 10 -95 11 -365 57
-370 64 -3 3 -16 7 -30 7 -28 1 -233 59 -265 75 -11 5 -29 11 -40 13 -11 2
-33 10 -50 17 -16 7 -32 13 -35 14 -3 1 -23 9 -45 20 -22 10 -46 18 -53 19 -7
1 -17 8 -22 16 -5 8 -10 11 -10 7 0 -21 -297 151 -371 215 -15 13 -48 41 -75
63 -26 22 -53 46 -58 53 -6 7 -21 23 -33 34 -13 12 -23 28 -23 35 0 7 -4 13
-9 13 -5 0 -23 21 -40 48 -17 26 -35 52 -40 58 -6 7 -21 38 -35 71 -77 184
-77 364 2 533 27 59 92 163 104 168 9 4 31 42 25 42 -2 0 -16 -10 -33 -22z"/>
</g>
</svg>
